`                                                                  
               ,o888888o.     8 888888888o.      8 888888888o.      
            . 8888     `88.   8 8888    `^888.   8 8888    `^888.   
           ,8 8888       `8b  8 8888        `88. 8 8888        `88. 
           88 8888        `8b 8 8888         `88 8 8888         `88 
           88 8888         88 8 8888          88 8 8888          88 
           88 8888         88 8 8888          88 8 8888          88 
           88 8888        ,8P 8 8888         ,88 8 8888         ,88 
           `8 8888       ,8P  8 8888        ,88' 8 8888        ,88' 
            ` 8888     ,88'   8 8888    ,o88P'   8 8888    ,o88P'   
               `8888888P'     8 888888888P'      8 888888888P' 
     
                                   oddball                               
      8 888888888o            .8.  -links  8 8888         8 8888         
      8 8888    `88.         .888. .       8 8888         8 8888         
      8 8888     `88        :88888. c      8 8888         8 8888         
      8 8888     ,88       . `88888. o     8 8888         8 8888         
      8 8888.   ,88'      .8. `88888. m    8 8888         8 8888         
      8 8888888888       .8`8. `88888.     8 8888         8 8888         
      8 8888    `88.    .8' `8. `88888.    8 8888         8 8888         
      8 8888      88   .8'   `8. `88888.   8 8888         8 8888         
      8 8888    ,88'  .888888888. `88888.  8 8888         8 8888         
      8 888888888P   .8'       `8. `88888. 8 888888888888 8 888888888888 


nglourious Basterds is a 2009 war film written and directed by Quentin Tarantino and released in August 2009 by The Weinstein Company and Universal Pictures. It was filmed in several locations, among them Germany and France, beginning in October 2008. The film, set in German-occupied France, tells the story of two plots to assassinate the Nazi political leadership, one planned by a young French Jewish cinema proprietress, the other by a team of American soldiers called the "Basterds".

Tarantino has said that despite it being a war film, Inglourious Basterds is a "spaghetti western but with World War II iconography". In addition to spaghetti westerns, the film also pays homage to the World War II "macaroni combat" sub-genre (itself heavily influenced by spaghetti-westerns).

Inglourious Basterds was accepted into the main selection at the 62nd Cannes Film Festival in competition for the prestigious Palme d'Or and had its world premiere there in May.It was the only U.S. film to win an award at Cannes that year, earning a Best Actor award for Christoph Waltz.


                                    +-+-+-+-+
                                    |c|a|s|t|
                                    +-+-+-+-+
                                         
                  Actor                              Role



                  Brad Pitt .......................  Lt. Aldo Raine 

                  Mélanie Laurent .................  Shosanna Dreyfus 

                  Christoph Waltz .................  Col. Hans Landa 

                  Eli Roth ........................  Sgt. Donny Donowitz 
                   
                  Michael Fassbender ..............  Lt. Archie Hicox 

                  Diane Kruger ....................  Bridget von Hammersmark 

                  Daniel Brühl ....................  Pvt Fredrick Zoller 

                  Til Schweiger ...................  Sgt. Hugo Stiglitz 

General
Complete name                    : Inglourious Basterds
Format                           : AVI
Format/Info                      : Audio Video Interleave
File size                        : 897 MiB
Duration                         : 2h 26mn
Overall bit rate                 : 856 Kbps

Video
Format                           : MPEG-4 Visual
Format profile                   : Streaming Video@L1
Format settings, BVOP            : Yes
Format settings, QPel            : No
Format settings, GMC             : No warppoints
Format settings, Matrix          : Default
Muxing mode                      : Packed bitstream
Codec ID                         : XVID
Codec ID/Hint                    : XviD
Duration                         : 2h 26mn
Bit rate                         : 652 Kbps
Width                            : 1 024 pixels
Height                           : 582 pixels
Display aspect ratio             : 16/9
Frame rate                       : 29.970 fps
Resolution                       : 24 bits
Colorimetry                      : 4:2:0
Scan type                        : Progressive
Bits/(Pixel*Frame)               : 0.037
Stream size                      : 684 MiB (76%)
Writing library                  : XviD 1.1.0 (UTC 2005-11-22)

Audio
Format                           : MPEG Audio
Format version                   : Version 1
Format profile                   : Layer 3
Codec ID                         : 55
Codec ID/Hint                    : MP3
Duration                         : 2h 26mn
Bit rate mode                    : Constant
Bit rate                         : 192 Kbps
Channel(s)                       : 2 channels
Sampling rate                    : 44.1 KHz
Resolution                       : 16 bits
Video delay                      : 26ms
Stream size                      : 201 MiB (22%)
Alignment                        : Split accross interleaves
Interleave, duration             : 33 ms (1.00 video frame)
Title                            : Audio Stream
Writing library                  : LAME3.92

For more oddball torrents  http://thepiratebay.org/user/oddball-links `                                                                                                            Please seed after downloading `                                                                                            :::===  :::===== :::===== :::====       :::= === :::====  :::====
        :::     :::      :::      :::  ===      :::===== :::  === :::====
         =====  ======   ======   ===  ===      ======== ===  ===   ===  
            === ===      ===      ===  ===      === ==== ===  ===   ===  
        ======  ======== ======== =======       ===  ===  ======    ===  
                                                                         
                  :::=====  :::====  :::===== :::===== :::==== 
                  :::       :::  === :::      :::      :::  ===
                  === ===== =======  ======   ======   ===  ===
                  ===   === === ===  ===      ===      ===  ===
                   =======  ===  === ======== ======== =======